<?xml version="1.0" encoding="utf-8"?>
<!-- Generator: Adobe Illustrator 19.2.0, SVG Export Plug-In . SVG Version: 6.00 Build 0)  -->
<svg version="1.1" id="Layer_1" xmlns="http://www.w3.org/2000/svg" xmlns:xlink="http://www.w3.org/1999/xlink" x="0px" y="0px"
	 viewBox="0 0 270.2 137.8" style="enable-background:new 0 0 270.2 137.8;" xml:space="preserve">
<style type="text/css">
	.st0{fill:#EDEDED;}
	.st1{fill:#F5F5F5;}
</style>
<g>
	<path class="st0" d="M240.5,78.3c-1.2,0-2.4,0.1-3.6,0.2c-6.7-13.5-20.6-22.8-36.8-22.8c-3.4,0-6.6,0.4-9.8,1.2
		C189.4,25.3,163.6,0,131.8,0C99.7,0,73.7,25.8,73.2,57.7c-4-1.3-8.3-2-12.8-2c-22.7,0-41,18.4-41,41c0,0.7,0,1.5,0.1,2.2
		c0,0,0,0-0.1,0C8.7,98.9,0,107.6,0,118.3c0,10.7,8.7,19.4,19.4,19.4h221.1c16.4,0,29.7-13.3,29.7-29.7
		C270.2,91.6,256.9,78.3,240.5,78.3z"/>
	<path class="st1" d="M98.3,69.7C92.6,65,83.9,64.3,77.6,68c-6.4,3.7-10.1,11.5-9,18.8c2.3-5.7,6.7-9.7,11.9-13
		C85.7,70.5,92.2,69.2,98.3,69.7z"/>
	<path class="st1" d="M26.2,74.1c4.7-4.5,10.5-7.9,16.8-9.6c12.7-3.4,27,0.2,36.5,9.1c-1.4-19.5,6.1-39.7,20-53.4
		c13.9-13.7,35.4-19.9,54.1-14c6.3,2,12.1,5.3,17.6,9.1C160.8,5.8,147,0,131.8,0C99.7,0,73.7,25.8,73.2,57.7c-4-1.3-8.3-2-12.8-2
		C46.1,55.7,33.6,63,26.2,74.1z"/>
	<path class="st1" d="M270.2,108c0-16.4-13.3-29.7-29.7-29.7c-1.2,0-2.4,0.1-3.6,0.2c-6.7-13.5-20.6-22.8-36.8-22.8
		c-3.2,0-6.4,0.4-9.4,1.1c-10.4,4.5-19.5,12.2-25.3,22c8.3-10.7,22.1-16.3,35.5-14.6c13.4,1.7,25.6,10.9,31,23.3
		c8.1-2.7,17.2-0.2,23.7,5.3c6.5,5.6,10.1,14.1,10.4,22.6c0.1,3-0.2,6.1-0.8,9.1C268.4,119.8,270.2,114.1,270.2,108z"/>
</g>
</svg>
